<svg xmlns="http://www.w3.org/2000/svg" viewBox="0 0 1200 980" role="img" aria-labelledby="title desc">
  <title id="title">Idea to TestFlight compact stack</title>
  <desc id="desc">A compact stacked stage diagram for the ViberMode idea to TestFlight flow.</desc>
  
  <defs>
    <filter id="panelShadow" x="-10%" y="-15%" width="120%" height="130%">
      <feDropShadow dx="0" dy="10" stdDeviation="14" flood-color="#0f172a" flood-opacity="0.10"/>
    </filter>
    <filter id="nodeShadow" x="-18%" y="-22%" width="136%" height="144%">
      <feDropShadow dx="0" dy="4" stdDeviation="6" flood-color="#0f172a" flood-opacity="0.12"/>
    </filter>
    <marker id="arrow" markerWidth="10" markerHeight="10" refX="8.5" refY="5" orient="auto" markerUnits="strokeWidth">
      <path d="M1.5,1.5 L8.5,5 L1.5,8.5 Z" fill="#263244"/>
    </marker>
    <marker id="arrowGreen" markerWidth="10" markerHeight="10" refX="8.5" refY="5" orient="auto" markerUnits="strokeWidth">
      <path d="M1.5,1.5 L8.5,5 L1.5,8.5 Z" fill="#059669"/>
    </marker>
    <marker id="arrowRed" markerWidth="10" markerHeight="10" refX="8.5" refY="5" orient="auto" markerUnits="strokeWidth">
      <path d="M1.5,1.5 L8.5,5 L1.5,8.5 Z" fill="#e11d48"/>
    </marker>
    <linearGradient id="page" x1="0" y1="0" x2="0" y2="1">
      <stop offset="0" stop-color="#fbfcff"/>
      <stop offset="1" stop-color="#eef3f8"/>
    </linearGradient>
    <linearGradient id="bluePanel" x1="0" y1="0" x2="1" y2="1">
      <stop offset="0" stop-color="#ecfeff"/>
      <stop offset="1" stop-color="#dbeafe"/>
    </linearGradient>
    <linearGradient id="orangePanel" x1="0" y1="0" x2="1" y2="1">
      <stop offset="0" stop-color="#fff7ed"/>
      <stop offset="1" stop-color="#ffedd5"/>
    </linearGradient>
    <linearGradient id="purplePanel" x1="0" y1="0" x2="1" y2="1">
      <stop offset="0" stop-color="#eef2ff"/>
      <stop offset="1" stop-color="#f3e8ff"/>
    </linearGradient>
    <linearGradient id="greenPanel" x1="0" y1="0" x2="1" y2="1">
      <stop offset="0" stop-color="#ecfdf5"/>
      <stop offset="1" stop-color="#dcfce7"/>
    </linearGradient>
    <style>
      .title { font: 800 42px Inter, ui-sans-serif, system-ui, -apple-system, BlinkMacSystemFont, "Segoe UI", sans-serif; fill: #101827; letter-spacing: 0; }
      .subtitle { font: 600 17px Inter, ui-sans-serif, system-ui, -apple-system, BlinkMacSystemFont, "Segoe UI", sans-serif; fill: #475569; letter-spacing: 0; }
      .badgeText { font: 800 15px Inter, ui-sans-serif, system-ui, -apple-system, BlinkMacSystemFont, "Segoe UI", sans-serif; fill: #fff; letter-spacing: 0.4px; }
      .sectionTitle { font: 800 25px Inter, ui-sans-serif, system-ui, -apple-system, BlinkMacSystemFont, "Segoe UI", sans-serif; fill: #111827; letter-spacing: 0; }
      .sectionCopy { font: 600 14px Inter, ui-sans-serif, system-ui, -apple-system, BlinkMacSystemFont, "Segoe UI", sans-serif; fill: #475569; letter-spacing: 0; }
      .laneTitle { font: 800 13px Inter, ui-sans-serif, system-ui, -apple-system, BlinkMacSystemFont, "Segoe UI", sans-serif; fill: #4338ca; letter-spacing: 0.4px; }
      .nodeTitle { font: 800 16px Inter, ui-sans-serif, system-ui, -apple-system, BlinkMacSystemFont, "Segoe UI", sans-serif; fill: #111827; letter-spacing: 0; }
      .nodeCopy { font: 600 12px Inter, ui-sans-serif, system-ui, -apple-system, BlinkMacSystemFont, "Segoe UI", sans-serif; fill: #475569; letter-spacing: 0; }
      .small { font: 700 11.5px Inter, ui-sans-serif, system-ui, -apple-system, BlinkMacSystemFont, "Segoe UI", sans-serif; fill: #64748b; letter-spacing: 0; }
      .mono { font: 700 11.5px ui-monospace, SFMono-Regular, Menlo, Monaco, Consolas, "Liberation Mono", monospace; fill: #334155; letter-spacing: 0; }
      .line { fill: none; stroke: #263244; stroke-width: 3.2; stroke-linecap: round; stroke-linejoin: round; marker-end: url(#arrow); }
      .greenLine { fill: none; stroke: #059669; stroke-width: 3.2; stroke-linecap: round; stroke-linejoin: round; marker-end: url(#arrowGreen); }
      .redLine { fill: none; stroke: #e11d48; stroke-width: 3; stroke-linecap: round; stroke-linejoin: round; stroke-dasharray: 7 7; marker-end: url(#arrowRed); }
      .plainLine { fill: none; stroke: #263244; stroke-width: 3.2; stroke-linecap: round; stroke-linejoin: round; }
      .dashLine { fill: none; stroke: #64748b; stroke-width: 2.8; stroke-linecap: round; stroke-linejoin: round; stroke-dasharray: 8 8; marker-end: url(#arrow); }
    </style>
  </defs>

  <rect width="1200" height="980" fill="#f8fbff"/>
  <rect x="92" y="34" width="1016" height="910" rx="30" fill="#fff" stroke="#d8e0eb"/>
  <text x="600" y="78" text-anchor="middle" class="title">Idea to TestFlight</text>
  <text x="600" y="108" text-anchor="middle" class="subtitle">compact stage map for generated iOS app delivery</text>

  
    <g filter="url(#panelShadow)">
      <rect x="140" y="136" width="920" height="134" rx="26" fill="url(#bluePanel)" stroke="#38bdf8" stroke-width="2"/>
    </g>
  
  
    <rect x="168" y="160" width="96" height="30" rx="15" fill="#0284c7"/>
    <text x="216" y="181" text-anchor="middle" class="badgeText">STAGE 1</text>
  
  <text x="288" y="183" class="sectionTitle">App To Idea</text>
  <text x="288" y="214" class="nodeCopy">Signals -> Research Loop -> Gate -> Ready Backlog Idea</text>
  
    <g filter="url(#nodeShadow)">
      <rect x="210" y="238" width="150" height="58" rx="16" fill="#fff" stroke="#bae6fd" stroke-width="1.5"/>
    </g>
    <text x="285" y="264" text-anchor="middle" class="nodeTitle">Signals</text>
    <text x="285" y="283" text-anchor="middle" class="nodeCopy">market input</text>
  
  
    <g filter="url(#nodeShadow)">
      <rect x="430" y="238" width="170" height="58" rx="16" fill="#fff" stroke="#bae6fd" stroke-width="1.5"/>
    </g>
    <text x="515" y="264" text-anchor="middle" class="nodeTitle">Research</text>
    <text x="515" y="283" text-anchor="middle" class="nodeCopy">score ideas</text>
  
  
    <g filter="url(#nodeShadow)">
      <rect x="670" y="238" width="130" height="58" rx="16" fill="#fff" stroke="#bae6fd" stroke-width="1.5"/>
    </g>
    <text x="735" y="264" text-anchor="middle" class="nodeTitle">Gate</text>
    <text x="735" y="283" text-anchor="middle" class="nodeCopy">ready?</text>
  
  
    <g filter="url(#nodeShadow)">
      <rect x="870" y="238" width="140" height="58" rx="16" fill="#fff" stroke="#bae6fd" stroke-width="1.5"/>
    </g>
    <text x="940" y="264" text-anchor="middle" class="nodeTitle">Ready Idea</text>
    <text x="940" y="283" text-anchor="middle" class="nodeCopy">backlog</text>
  
  <path d="M360 267 H430 M600 267 H670 M800 267 H870" class="line"/>

  
    <g filter="url(#panelShadow)">
      <rect x="140" y="318" width="920" height="134" rx="26" fill="url(#orangePanel)" stroke="#fb923c" stroke-width="2"/>
    </g>
  
  
    <rect x="168" y="342" width="96" height="30" rx="15" fill="#ea580c"/>
    <text x="216" y="363" text-anchor="middle" class="badgeText">STAGE 2</text>
  
  <text x="288" y="365" class="sectionTitle">Bootstrap</text>
  <text x="288" y="396" class="nodeCopy">Reserve run -> Template repo -> Clone workspace -> Baseline</text>
  
    <g filter="url(#nodeShadow)">
      <rect x="230" y="416" width="130" height="46" rx="16" fill="#fff" stroke="#fed7aa" stroke-width="1.5"/>
    </g>
    <text x="295" y="442" text-anchor="middle" class="nodeTitle">Reserve</text>
    
  
  
    <g filter="url(#nodeShadow)">
      <rect x="430" y="416" width="140" height="46" rx="16" fill="#fff" stroke="#fed7aa" stroke-width="1.5"/>
    </g>
    <text x="500" y="442" text-anchor="middle" class="nodeTitle">Template</text>
    
  
  
    <g filter="url(#nodeShadow)">
      <rect x="640" y="416" width="120" height="46" rx="16" fill="#fff" stroke="#fed7aa" stroke-width="1.5"/>
    </g>
    <text x="700" y="442" text-anchor="middle" class="nodeTitle">Clone</text>
    
  
  
    <g filter="url(#nodeShadow)">
      <rect x="830" y="416" width="130" height="46" rx="16" fill="#fff" stroke="#fed7aa" stroke-width="1.5"/>
    </g>
    <text x="895" y="442" text-anchor="middle" class="nodeTitle">Baseline</text>
    
  
  <path d="M360 439 H430 M570 439 H640 M760 439 H830" class="line"/>

  
    <g filter="url(#panelShadow)">
      <rect x="140" y="500" width="920" height="214" rx="26" fill="url(#purplePanel)" stroke="#818cf8" stroke-width="2"/>
    </g>
  
  
    <rect x="168" y="524" width="96" height="30" rx="15" fill="#4f46e5"/>
    <text x="216" y="545" text-anchor="middle" class="badgeText">STAGE 3</text>
  
  <text x="288" y="547" class="sectionTitle">Product To Code</text>
  <text x="288" y="578" class="nodeCopy">Brainstorm -> PRD -> UX -> Stories -> Tasks -> Implement -> Validate -> Review</text>
  
    <g filter="url(#nodeShadow)">
      <rect x="160" y="610" width="124" height="50" rx="16" fill="#fff" stroke="#c7d2fe" stroke-width="1.5"/>
    </g>
    <text x="222" y="636" text-anchor="middle" class="nodeTitle">Brainstorm</text>
    
  
  
    <g filter="url(#nodeShadow)">
      <rect x="318" y="610" width="90" height="50" rx="16" fill="#fff" stroke="#c7d2fe" stroke-width="1.5"/>
    </g>
    <text x="363" y="636" text-anchor="middle" class="nodeTitle">PRD</text>
    
  
  
    <g filter="url(#nodeShadow)">
      <rect x="442" y="610" width="90" height="50" rx="16" fill="#fff" stroke="#c7d2fe" stroke-width="1.5"/>
    </g>
    <text x="487" y="636" text-anchor="middle" class="nodeTitle">UX</text>
    
  
  
    <g filter="url(#nodeShadow)">
      <rect x="566" y="610" width="106" height="50" rx="16" fill="#fff" stroke="#c7d2fe" stroke-width="1.5"/>
    </g>
    <text x="619" y="636" text-anchor="middle" class="nodeTitle">Stories</text>
    
  
  
    <g filter="url(#nodeShadow)">
      <rect x="706" y="610" width="96" height="50" rx="16" fill="#fff" stroke="#c7d2fe" stroke-width="1.5"/>
    </g>
    <text x="754" y="636" text-anchor="middle" class="nodeTitle">Tasks</text>
    
  
  
    <g filter="url(#nodeShadow)">
      <rect x="836" y="610" width="124" height="50" rx="16" fill="#fff" stroke="#c7d2fe" stroke-width="1.5"/>
    </g>
    <text x="898" y="636" text-anchor="middle" class="nodeTitle">Implement</text>
    
  
  <path d="M284 635 H318 M408 635 H442 M532 635 H566 M672 635 H706 M802 635 H836" class="line"/>
  <rect x="500" y="684" width="200" height="46" rx="23" fill="#312e81"/>
  <text x="600" y="713" text-anchor="middle" class="badgeText">Build Ready</text>
  <path d="M898 660 C872 706 776 706 700 706" class="greenLine"/>

  
    <g filter="url(#panelShadow)">
      <rect x="140" y="762" width="920" height="134" rx="26" fill="url(#greenPanel)" stroke="#34d399" stroke-width="2"/>
    </g>
  
  
    <rect x="168" y="786" width="96" height="30" rx="15" fill="#059669"/>
    <text x="216" y="807" text-anchor="middle" class="badgeText">STAGE 4</text>
  
  <text x="288" y="809" class="sectionTitle">TestFlight</text>
  <text x="288" y="840" class="nodeCopy">Preflight -> Build + Sign -> Internal TestFlight -> Evidence</text>
  
    <g filter="url(#nodeShadow)">
      <rect x="250" y="864" width="132" height="42" rx="16" fill="#fff" stroke="#bbf7d0" stroke-width="1.5"/>
    </g>
    <text x="316" y="890" text-anchor="middle" class="nodeTitle">Preflight</text>
    
  
  
    <g filter="url(#nodeShadow)">
      <rect x="448" y="864" width="138" height="42" rx="16" fill="#fff" stroke="#bbf7d0" stroke-width="1.5"/>
    </g>
    <text x="517" y="890" text-anchor="middle" class="nodeTitle">Build + Sign</text>
    
  
  
    <g filter="url(#nodeShadow)">
      <rect x="652" y="864" width="148" height="42" rx="16" fill="#fff" stroke="#bbf7d0" stroke-width="1.5"/>
    </g>
    <text x="726" y="890" text-anchor="middle" class="nodeTitle">Internal</text>
    
  
  
    <g filter="url(#nodeShadow)">
      <rect x="866" y="864" width="118" height="42" rx="16" fill="#fff" stroke="#bbf7d0" stroke-width="1.5"/>
    </g>
    <text x="925" y="890" text-anchor="middle" class="nodeTitle">Evidence</text>
    
  
  <path d="M382 885 H448 M586 885 H652 M800 885 H866" class="greenLine"/>
</svg>
